<mxfile host="app.diagrams.net" agent="Mozilla/5.0 (Windows NT 10.0; Win64; x64) AppleWebKit/537.36 (KHTML, like Gecko) Chrome/136.0.0.0 Safari/537.36" version="27.0.6">
  <diagram name="ページ1" id="Kw41LayTadQ6dwYY1b2t">
    <mxGraphModel dx="1214" dy="873" grid="1" gridSize="10" guides="1" tooltips="1" connect="1" arrows="1" fold="1" page="1" pageScale="1" pageWidth="1169" pageHeight="827" math="0" shadow="0">
      <root>
        <mxCell id="0" />
        <mxCell id="1" parent="0" />
        <mxCell id="dZI_uBbOkzf9ldA4B1yR-1" value="自身で気づく&lt;div&gt;～雑に出す～&lt;/div&gt;" style="text;html=1;align=center;verticalAlign=middle;whiteSpace=wrap;rounded=0;fillColor=#dae8fc;strokeColor=#6c8ebf;" parent="1" vertex="1">
          <mxGeometry x="80" y="40" width="200" height="40" as="geometry" />
        </mxCell>
        <mxCell id="dZI_uBbOkzf9ldA4B1yR-2" value="外界" style="rounded=1;whiteSpace=wrap;html=1;" parent="1" vertex="1">
          <mxGeometry x="200" y="300" width="80" height="40" as="geometry" />
        </mxCell>
        <mxCell id="dZI_uBbOkzf9ldA4B1yR-3" value="入力&lt;div&gt;フィルタ&lt;/div&gt;" style="rounded=1;whiteSpace=wrap;html=1;fillColor=#f8cecc;strokeColor=#b85450;" parent="1" vertex="1">
          <mxGeometry x="200" y="200" width="80" height="40" as="geometry" />
        </mxCell>
        <mxCell id="dZI_uBbOkzf9ldA4B1yR-5" value="" style="endArrow=classic;html=1;rounded=0;exitX=0.5;exitY=0;exitDx=0;exitDy=0;" parent="1" source="dZI_uBbOkzf9ldA4B1yR-2" edge="1">
          <mxGeometry width="50" height="50" relative="1" as="geometry">
            <mxPoint x="230" y="200" as="sourcePoint" />
            <mxPoint x="240" y="240" as="targetPoint" />
          </mxGeometry>
        </mxCell>
        <mxCell id="dZI_uBbOkzf9ldA4B1yR-6" value="INPUT" style="rounded=1;whiteSpace=wrap;html=1;" parent="1" vertex="1">
          <mxGeometry x="200" y="120" width="80" height="40" as="geometry" />
        </mxCell>
        <mxCell id="dZI_uBbOkzf9ldA4B1yR-7" value="" style="endArrow=classic;html=1;rounded=0;exitX=0.5;exitY=0;exitDx=0;exitDy=0;entryX=0.5;entryY=1;entryDx=0;entryDy=0;" parent="1" source="dZI_uBbOkzf9ldA4B1yR-3" target="dZI_uBbOkzf9ldA4B1yR-6" edge="1">
          <mxGeometry width="50" height="50" relative="1" as="geometry">
            <mxPoint x="350" y="190" as="sourcePoint" />
            <mxPoint x="400" y="140" as="targetPoint" />
          </mxGeometry>
        </mxCell>
        <mxCell id="dZI_uBbOkzf9ldA4B1yR-8" value="OUTPUT" style="rounded=1;whiteSpace=wrap;html=1;" parent="1" vertex="1">
          <mxGeometry x="480" y="120" width="80" height="40" as="geometry" />
        </mxCell>
        <mxCell id="dZI_uBbOkzf9ldA4B1yR-9" value="外界" style="rounded=1;whiteSpace=wrap;html=1;" parent="1" vertex="1">
          <mxGeometry x="480" y="300" width="80" height="40" as="geometry" />
        </mxCell>
        <mxCell id="dZI_uBbOkzf9ldA4B1yR-10" value="出力&lt;div&gt;フィルタ&lt;/div&gt;" style="rounded=1;whiteSpace=wrap;html=1;fillColor=#f8cecc;strokeColor=#b85450;" parent="1" vertex="1">
          <mxGeometry x="480" y="200" width="80" height="40" as="geometry" />
        </mxCell>
        <mxCell id="dZI_uBbOkzf9ldA4B1yR-12" value="PROCESS" style="rounded=1;whiteSpace=wrap;html=1;" parent="1" vertex="1">
          <mxGeometry x="320" y="120" width="120" height="40" as="geometry" />
        </mxCell>
        <mxCell id="dZI_uBbOkzf9ldA4B1yR-14" value="" style="endArrow=classic;html=1;rounded=0;exitX=1;exitY=0.5;exitDx=0;exitDy=0;entryX=0;entryY=0.5;entryDx=0;entryDy=0;" parent="1" source="dZI_uBbOkzf9ldA4B1yR-6" target="dZI_uBbOkzf9ldA4B1yR-12" edge="1">
          <mxGeometry width="50" height="50" relative="1" as="geometry">
            <mxPoint x="290" y="130" as="sourcePoint" />
            <mxPoint x="340" y="80" as="targetPoint" />
          </mxGeometry>
        </mxCell>
        <mxCell id="dZI_uBbOkzf9ldA4B1yR-15" value="" style="endArrow=classic;html=1;rounded=0;exitX=0.5;exitY=1;exitDx=0;exitDy=0;entryX=0.5;entryY=0;entryDx=0;entryDy=0;" parent="1" source="dZI_uBbOkzf9ldA4B1yR-8" target="dZI_uBbOkzf9ldA4B1yR-10" edge="1">
          <mxGeometry width="50" height="50" relative="1" as="geometry">
            <mxPoint x="590" y="380" as="sourcePoint" />
            <mxPoint x="640" y="330" as="targetPoint" />
          </mxGeometry>
        </mxCell>
        <mxCell id="dZI_uBbOkzf9ldA4B1yR-16" value="" style="endArrow=classic;html=1;rounded=0;exitX=0.5;exitY=1;exitDx=0;exitDy=0;entryX=0.5;entryY=0;entryDx=0;entryDy=0;" parent="1" source="dZI_uBbOkzf9ldA4B1yR-10" target="dZI_uBbOkzf9ldA4B1yR-9" edge="1">
          <mxGeometry width="50" height="50" relative="1" as="geometry">
            <mxPoint x="590" y="380" as="sourcePoint" />
            <mxPoint x="640" y="330" as="targetPoint" />
          </mxGeometry>
        </mxCell>
        <mxCell id="dZI_uBbOkzf9ldA4B1yR-17" value="" style="endArrow=classic;html=1;rounded=0;exitX=1;exitY=0.5;exitDx=0;exitDy=0;entryX=0;entryY=0.5;entryDx=0;entryDy=0;" parent="1" source="dZI_uBbOkzf9ldA4B1yR-12" target="dZI_uBbOkzf9ldA4B1yR-8" edge="1">
          <mxGeometry width="50" height="50" relative="1" as="geometry">
            <mxPoint x="590" y="380" as="sourcePoint" />
            <mxPoint x="640" y="330" as="targetPoint" />
          </mxGeometry>
        </mxCell>
        <mxCell id="dZI_uBbOkzf9ldA4B1yR-20" value="変化の可能性" style="rounded=1;whiteSpace=wrap;html=1;fillColor=#f8cecc;strokeColor=#b85450;" parent="1" vertex="1">
          <mxGeometry x="320" y="200" width="120" height="40" as="geometry" />
        </mxCell>
        <mxCell id="dZI_uBbOkzf9ldA4B1yR-21" value="" style="endArrow=classic;html=1;rounded=0;exitX=0.25;exitY=1;exitDx=0;exitDy=0;entryX=0.25;entryY=0;entryDx=0;entryDy=0;" parent="1" edge="1">
          <mxGeometry width="50" height="50" relative="1" as="geometry">
            <mxPoint x="360" y="159.9999999999999" as="sourcePoint" />
            <mxPoint x="360" y="199.9999999999999" as="targetPoint" />
          </mxGeometry>
        </mxCell>
        <mxCell id="dZI_uBbOkzf9ldA4B1yR-22" value="" style="endArrow=classic;html=1;rounded=0;entryX=0.83;entryY=1.029;entryDx=0;entryDy=0;entryPerimeter=0;" parent="1" edge="1">
          <mxGeometry width="50" height="50" relative="1" as="geometry">
            <mxPoint x="400.4" y="200" as="sourcePoint" />
            <mxPoint x="399.9999999999999" y="161.15999999999997" as="targetPoint" />
          </mxGeometry>
        </mxCell>
        <mxCell id="ioiKAGNLFTyEQ1MmPSqv-1" value="" style="endArrow=none;dashed=1;html=1;dashPattern=1 3;strokeWidth=2;rounded=0;" parent="1" edge="1">
          <mxGeometry width="50" height="50" relative="1" as="geometry">
            <mxPoint x="110" y="260" as="sourcePoint" />
            <mxPoint x="680" y="260" as="targetPoint" />
          </mxGeometry>
        </mxCell>
        <mxCell id="ioiKAGNLFTyEQ1MmPSqv-8" value="自身" style="text;html=1;align=center;verticalAlign=middle;whiteSpace=wrap;rounded=0;" parent="1" vertex="1">
          <mxGeometry x="120" y="230" width="60" height="30" as="geometry" />
        </mxCell>
        <mxCell id="ioiKAGNLFTyEQ1MmPSqv-19" value="" style="endArrow=classic;html=1;rounded=0;exitX=0;exitY=0.5;exitDx=0;exitDy=0;entryX=1;entryY=0.5;entryDx=0;entryDy=0;" parent="1" source="ioiKAGNLFTyEQ1MmPSqv-2" edge="1">
          <mxGeometry width="50" height="50" relative="1" as="geometry">
            <mxPoint x="460" y="520" as="sourcePoint" />
            <mxPoint x="440" y="460" as="targetPoint" />
          </mxGeometry>
        </mxCell>
        <mxCell id="ioiKAGNLFTyEQ1MmPSqv-20" value="" style="endArrow=classic;html=1;rounded=0;" parent="1" source="ioiKAGNLFTyEQ1MmPSqv-13" edge="1">
          <mxGeometry width="50" height="50" relative="1" as="geometry">
            <mxPoint x="320" y="459.66" as="sourcePoint" />
            <mxPoint x="280" y="460" as="targetPoint" />
          </mxGeometry>
        </mxCell>
        <mxCell id="vmNLv8Tu3-324bxG0I76-2" value="日記&lt;div&gt;ジャーナル&lt;/div&gt;&lt;div&gt;メモ&lt;/div&gt;" style="shape=note;whiteSpace=wrap;html=1;backgroundOutline=1;darkOpacity=0.05;" vertex="1" parent="1">
          <mxGeometry x="120" y="360" width="160" height="60" as="geometry" />
        </mxCell>
        <mxCell id="vmNLv8Tu3-324bxG0I76-3" value="音声データ" style="shape=note;whiteSpace=wrap;html=1;backgroundOutline=1;darkOpacity=0.05;" vertex="1" parent="1">
          <mxGeometry x="120" y="460" width="160" height="60" as="geometry" />
        </mxCell>
        <mxCell id="vmNLv8Tu3-324bxG0I76-5" value="① 文字や絵、図&lt;div&gt;らくがき、アート、イメージ&lt;/div&gt;" style="shape=note;whiteSpace=wrap;html=1;backgroundOutline=1;darkOpacity=0.05;" vertex="1" parent="1">
          <mxGeometry x="320" y="360" width="360" height="80" as="geometry" />
        </mxCell>
        <mxCell id="vmNLv8Tu3-324bxG0I76-6" value="&lt;div&gt;➁ 声（こえ）&lt;/div&gt;&lt;div&gt;自由な曲、ラフな歌、&lt;/div&gt;&lt;div&gt;音声の書き起こし&lt;/div&gt;" style="shape=note;whiteSpace=wrap;html=1;backgroundOutline=1;darkOpacity=0.05;" vertex="1" parent="1">
          <mxGeometry x="320" y="460" width="360" height="80" as="geometry" />
        </mxCell>
        <mxCell id="vmNLv8Tu3-324bxG0I76-7" value="" style="endArrow=classic;html=1;rounded=0;exitX=0;exitY=0.5;exitDx=0;exitDy=0;entryX=1;entryY=0.5;entryDx=0;entryDy=0;" edge="1" parent="1" source="dZI_uBbOkzf9ldA4B1yR-9" target="dZI_uBbOkzf9ldA4B1yR-2">
          <mxGeometry width="50" height="50" relative="1" as="geometry">
            <mxPoint x="720" y="300" as="sourcePoint" />
            <mxPoint x="720" y="340" as="targetPoint" />
          </mxGeometry>
        </mxCell>
        <mxCell id="vmNLv8Tu3-324bxG0I76-8" value="&lt;div&gt;③ 身体の動き、表情&lt;/div&gt;&lt;div&gt;動きを撮る&lt;/div&gt;" style="shape=note;whiteSpace=wrap;html=1;backgroundOutline=1;darkOpacity=0.05;" vertex="1" parent="1">
          <mxGeometry x="320" y="560" width="360" height="90" as="geometry" />
        </mxCell>
        <mxCell id="vmNLv8Tu3-324bxG0I76-9" value="自身の生み出したものを見る、聞く、感じる" style="text;html=1;align=center;verticalAlign=middle;whiteSpace=wrap;rounded=0;" vertex="1" parent="1">
          <mxGeometry x="100" y="270" width="130" height="30" as="geometry" />
        </mxCell>
        <mxCell id="vmNLv8Tu3-324bxG0I76-10" value="自身で生み出す" style="text;html=1;align=center;verticalAlign=middle;whiteSpace=wrap;rounded=0;" vertex="1" parent="1">
          <mxGeometry x="530" y="270" width="130" height="30" as="geometry" />
        </mxCell>
        <mxCell id="vmNLv8Tu3-324bxG0I76-13" value="動画" style="shape=note;whiteSpace=wrap;html=1;backgroundOutline=1;darkOpacity=0.05;" vertex="1" parent="1">
          <mxGeometry x="120" y="560" width="160" height="60" as="geometry" />
        </mxCell>
      </root>
    </mxGraphModel>
  </diagram>
</mxfile>
